<svg width="25" height="25" viewBox="0 0 25 25" fill="none" xmlns="http://www.w3.org/2000/svg">
<path d="M18.6716 19.472L18.3528 19.7651C18.2987 19.8075 18.2471 19.8531 18.223 19.8745C18.2165 19.8802 18.212 19.8842 18.2099 19.8859C18.0449 20.0234 17.8674 20.1545 17.6733 20.2904L17.6733 20.2904L17.6694 20.2931C17.6214 20.3274 17.5932 20.3487 17.5732 20.3639C17.5474 20.3834 17.5352 20.3926 17.5119 20.4059L17.4995 20.413L17.4875 20.4208C17.3637 20.5013 17.2483 20.5685 17.122 20.6421C17.0544 20.6815 16.9837 20.7228 16.9069 20.7688C16.8719 20.7889 16.8353 20.8119 16.8086 20.8286C16.8017 20.8329 16.7954 20.8368 16.7901 20.8402C16.757 20.8607 16.7352 20.8734 16.7164 20.8828L16.7163 20.8827L16.708 20.8871C16.509 20.9913 16.3107 21.0857 16.113 21.1704L16.0995 21.1762L16.0864 21.1828C16.0017 21.2252 15.9455 21.2527 15.8944 21.2718L15.8836 21.2759L15.873 21.2804C15.749 21.3336 15.63 21.3743 15.4937 21.421C15.4222 21.4455 15.3458 21.4716 15.2615 21.502C15.1634 21.5284 15.0713 21.563 15.0033 21.5885L15.0003 21.5896C14.8584 21.6386 14.7156 21.6724 14.5482 21.712C14.4868 21.7265 14.4221 21.7418 14.353 21.7589C14.2897 21.7692 14.2362 21.7839 14.2055 21.7924L14.2033 21.793C14.166 21.8033 14.158 21.8051 14.158 21.8052L14.1422 21.8075L14.1252 21.8111C13.8675 21.8663 13.6062 21.9039 13.3285 21.9327L13.2932 21.9363L13.2587 21.9449L13.2381 21.95H13.2373L13.2147 21.9521C12.8952 21.9811 12.5709 22 12.25 22C11.9416 22 11.6298 21.9825 11.3123 21.9553C11.2726 21.946 11.2116 21.934 11.1438 21.9308C10.8727 21.9023 10.617 21.8651 10.3648 21.8111L10.3435 21.8066L10.322 21.8039C10.2856 21.7993 10.2508 21.7902 10.1774 21.7692L10.1694 21.7669L10.1613 21.7649C9.91977 21.7046 9.68915 21.6468 9.46 21.58L9.45068 21.5773L9.44127 21.5749C9.39374 21.563 9.34075 21.5438 9.25557 21.5118L9.24369 21.5074L9.2316 21.5035C9.02472 21.4377 8.8173 21.3623 8.60932 21.2772L8.60248 21.2744L8.59557 21.2718C8.54451 21.2527 8.48834 21.2252 8.40361 21.1828L8.38676 21.1744L8.36932 21.1672C8.16764 21.0847 7.97618 20.9936 7.79469 20.8939C7.76604 20.8775 7.73431 20.8585 7.69724 20.8363L7.69509 20.835C7.65912 20.8134 7.61775 20.7886 7.57807 20.7659L7.57012 20.7613L7.562 20.7571C7.37033 20.6567 7.1885 20.5476 7.01632 20.4301C6.97988 20.4041 6.9462 20.3808 6.91544 20.3595L6.91461 20.3589C6.8828 20.3369 6.854 20.3169 6.8235 20.2952C6.77557 20.2599 6.72907 20.226 6.68382 20.1931C6.53797 20.0868 6.40519 19.9901 6.28009 19.8859L6.25958 19.8688L6.23735 19.854C6.22173 19.8436 6.21651 19.8388 6.20281 19.8263C6.18907 19.8137 6.1668 19.7933 6.11696 19.7516C6.07045 19.7103 6.02083 19.6705 5.98 19.6381V19.6213L5.81937 19.4728C3.93599 17.7321 2.75 15.2529 2.75 12.5C2.75 7.26614 7.01614 3 12.25 3C17.4839 3 21.75 7.26614 21.75 12.5C21.75 15.2527 20.5642 17.7315 18.6716 19.472ZM16.9112 17.8851L16.9112 17.8851L16.9148 17.8875C17.3127 18.1497 17.6419 18.4537 17.8965 18.7784L18.2469 19.2255L18.6459 18.8212C20.2537 17.1923 21.25 14.9578 21.25 12.5C21.25 7.53386 17.2161 3.5 12.25 3.5C7.28386 3.5 3.25 7.53386 3.25 12.5C3.25 14.9578 4.24632 17.1923 5.85414 18.8212L6.24656 19.2188L6.59838 18.7849C6.86891 18.4512 7.19149 18.1469 7.58516 17.8875L7.58735 17.886C8.85356 17.0419 10.5441 16.605 12.2575 16.605C13.9711 16.605 15.6558 17.0419 16.9112 17.8851ZM9 11.1801C9 9.3862 10.4561 7.93005 12.25 7.93005C14.0434 7.93005 15.4993 9.3855 15.5 11.1788C15.4907 12.9381 14.1173 14.3552 12.3711 14.4201H12.371H12.371H12.3709H12.3709H12.3708H12.3708H12.3707H12.3707H12.3706H12.3706H12.3705H12.3705H12.3704H12.3704H12.3703H12.3703H12.3702H12.3702H12.3701H12.3701H12.37H12.37H12.3699H12.3699H12.3698H12.3698H12.3697H12.3696H12.3696H12.3695H12.3695H12.3694H12.3694H12.3693H12.3693H12.3692H12.3692H12.3691H12.3691H12.369H12.369H12.3689H12.3689H12.3688H12.3688H12.3687H12.3686H12.3686H12.3685H12.3685H12.3684H12.3684H12.3683H12.3683H12.3682H12.3682H12.3681H12.3681H12.368H12.3679H12.3679H12.3678H12.3678H12.3677H12.3677H12.3676H12.3676H12.3675H12.3675H12.3674H12.3673H12.3673H12.3672H12.3672H12.3671H12.3671H12.367H12.367H12.3669H12.3668H12.3668H12.3667H12.3667H12.3666H12.3666H12.3665H12.3665H12.3664H12.3663H12.3663H12.3662H12.3662H12.3661H12.3661H12.366H12.366H12.3659H12.3658H12.3658H12.3657H12.3657H12.3656H12.3656H12.3655H12.3654H12.3654H12.3653H12.3653H12.3652H12.3652H12.3651H12.365H12.365H12.3649H12.3649H12.3648H12.3648H12.3647H12.3646H12.3646H12.3645H12.3645H12.3644H12.3644H12.3643H12.3642H12.3642H12.3641H12.3641H12.364H12.364H12.3639H12.3638H12.3638H12.3637H12.3637H12.3636H12.3636H12.3635H12.3634H12.3634H12.3633H12.3633H12.3632H12.3632H12.3631H12.363H12.363H12.3629H12.3629H12.3628H12.3627H12.3627H12.3626H12.3626H12.3625H12.3625H12.3624H12.3623H12.3623H12.3622H12.3622H12.3621H12.362H12.362H12.3619H12.3619H12.3618H12.3618H12.3617H12.3616H12.3616H12.3615H12.3615H12.3614H12.3613H12.3613H12.3612H12.3612H12.3611H12.3611H12.361H12.3609H12.3609H12.3608H12.3608H12.3607H12.3606H12.3606H12.3605H12.3605H12.3604H12.3604H12.3603H12.3602H12.3602H12.3601H12.3601H12.36H12.3599H12.3598H12.3596H12.3595H12.3594H12.3593H12.3592H12.3591H12.3589H12.3588H12.3587H12.3586H12.3585H12.3583H12.3582H12.3581H12.358H12.3579H12.3577H12.3576H12.3575H12.3574H12.3572H12.3571H12.357H12.3569H12.3568H12.3566H12.3565H12.3564H12.3563H12.3561H12.356H12.3559H12.3558H12.3556H12.3555H12.3554H12.3553H12.3551H12.355H12.3549H12.3548H12.3546H12.3545H12.3544H12.3543H12.3541H12.354H12.3539H12.3537H12.3536H12.3535H12.3534H12.3532H12.3531H12.353H12.3528H12.3527H12.3526H12.3525H12.3523H12.3522H12.3521H12.3519H12.3518H12.3517H12.3515H12.3514H12.3513H12.3512H12.351H12.3509H12.3508H12.3506H12.3505H12.3504H12.3502H12.3501H12.35H12.3498H12.3497H12.3496H12.3494H12.3493H12.3492H12.349H12.3489H12.3488H12.3486H12.3485H12.3484H12.3482H12.3481H12.348H12.3478H12.3477H12.3476H12.3474H12.3473H12.3471H12.347H12.3469H12.3467H12.3466H12.3465H12.3463H12.3462H12.3461H12.3459H12.3458H12.3456H12.3455H12.3454H12.3452H12.3451H12.345H12.3448H12.3447H12.3445H12.3444H12.3443H12.3441H12.344H12.3439H12.3437H12.3436H12.3434H12.3433H12.3432H12.343H12.3429H12.3427H12.3426H12.3425H12.3423H12.3422H12.342H12.3419H12.3418H12.3416H12.3415H12.3413H12.3412H12.3411H12.3409H12.3408H12.3406H12.3405H12.3404H12.3402H12.3401H12.3399H12.3398H12.3396H12.3395H12.3394H12.3392H12.3391H12.3389H12.3388H12.3386H12.3385H12.3384H12.3382H12.3381H12.3379H12.3378H12.3376H12.3375H12.3374H12.3372H12.3371H12.3369H12.3368H12.3366H12.3365H12.3364H12.3362H12.3361H12.3359H12.3358H12.3356H12.3355H12.3353H12.3352H12.3351H12.3349H12.3348H12.3346H12.3345H12.3343H12.3342H12.334H12.3339H12.3338H12.3336H12.3335H12.3333H12.3332H12.333H12.3329H12.3327H12.3326H12.3325H12.3323H12.3322H12.332H12.3319H12.3317H12.3316H12.3314H12.3313H12.3311H12.331H12.3308H12.3307H12.3306H12.3304H12.3303H12.3301H12.33H12.3298H12.3297H12.3295H12.3294H12.3292H12.3291H12.329H12.3288H12.3287H12.3285H12.3284H12.3282H12.3281H12.3279H12.3278H12.3276H12.3275H12.3273H12.3272H12.3271H12.3269H12.3268H12.3266H12.3265H12.3263H12.3262H12.326H12.3259H12.3257H12.3256H12.3254H12.3253H12.3251H12.325H12.3249H12.3247H12.3246H12.3244H12.3243H12.3241H12.324H12.3238H12.3237H12.3235H12.3234H12.3232H12.3231H12.3229H12.3228H12.3227H12.3225H12.3224H12.3222H12.3221H12.3219H12.3218H12.3216H12.3215H12.3213H12.3212H12.321H12.3209H12.3208H12.3206H12.3205H12.3203H12.3202H12.32H12.3199H12.3197H12.3196H12.3194H12.3193H12.3191H12.319H12.3189H12.3187H12.3186H12.3184H12.3183H12.3181H12.318H12.3178H12.3177H12.3175H12.3174H12.3173H12.3171H12.317H12.3168H12.3167H12.3165H12.3164H12.3162H12.3161H12.316H12.3158H12.3157H12.3155H12.3154H12.3152H12.3151H12.3149H12.3148H12.3147H12.3145H12.3144H12.3142H12.3141H12.3139H12.3138H12.3136H12.3135H12.3134H12.3132H12.3131H12.3129H12.3128H12.3126H12.3125H12.3124H12.3122H12.3121H12.3119H12.3118H12.3116H12.3115H12.3114H12.3112H12.3111H12.3109H12.3108H12.3106H12.3105H12.3104H12.3102H12.3101H12.3099H12.3098H12.3096H12.3095H12.3094H12.3092H12.3091H12.3089H12.3088H12.3087H12.3085H12.3084H12.3082H12.3081H12.308H12.3078H12.3077H12.3075H12.3074H12.3073H12.3071H12.307H12.3068H12.3067H12.3066H12.3064H12.3063H12.3061H12.306H12.3059H12.3057H12.3056H12.3055H12.3053H12.3052H12.305H12.3049H12.3048H12.3046H12.3045H12.3044H12.3042H12.3041H12.3039H12.3038H12.3037H12.3035H12.3034H12.3033H12.3031H12.303H12.3028H12.3027H12.3026H12.3024H12.3023H12.3022H12.302H12.3019H12.3018H12.3016H12.3015H12.3014H12.3012H12.3011H12.301H12.3008H12.3007H12.3006H12.3004H12.3003H12.3002H12.3H12.2999H12.2998H12.2996H12.2995H12.2994H12.2992H12.2991H12.299H12.2988H12.2987H12.2986H12.2985H12.2983H12.2982H12.2981H12.2979H12.2978H12.2977H12.2975H12.2974H12.2973H12.2972H12.297H12.2969H12.2968H12.2966H12.2965H12.2964H12.2963H12.2961H12.296H12.2959H12.2957H12.2956H12.2955H12.2954H12.2952H12.2951H12.295H12.2949H12.2947H12.2946H12.2945H12.2944H12.2942H12.2941H12.294H12.2939H12.2937H12.2936H12.2935H12.2934H12.2932H12.2931H12.293H12.2929H12.2928H12.2926H12.2925H12.2924H12.2923H12.2921H12.292H12.2919H12.2918H12.2917H12.2915H12.2914H12.2913H12.2912H12.2911H12.2909H12.2908H12.2907H12.2906H12.2905H12.2904H12.2902H12.2901H12.29H12.2899H12.2898H12.2896H12.2895H12.2894H12.2893H12.2892H12.289H12.2889H12.2888H12.2887H12.2886H12.2884H12.2883H12.2882H12.2881H12.2879H12.2878H12.2877H12.2876H12.2874H12.2873H12.2872H12.2871H12.2869H12.2868H12.2867H12.2865H12.2864H12.2863H12.2862H12.286H12.2859H12.2858H12.2856H12.2855H12.2854H12.2852H12.2851H12.285H12.2848H12.2847H12.2846H12.2844H12.2843H12.2841H12.284H12.2839H12.2837H12.2836H12.2835H12.2833H12.2832H12.283H12.2829H12.2828H12.2826H12.2825H12.2823H12.2822H12.2821H12.2819H12.2818H12.2816H12.2815H12.2813H12.2812H12.281H12.2809H12.2808H12.2806H12.2805H12.2803H12.2802H12.28H12.2799H12.2797H12.2796H12.2794H12.2793H12.2791H12.279H12.2788H12.2787H12.2785H12.2784H12.2782H12.2781H12.2779H12.2778H12.2776H12.2775H12.2773H12.2771H12.277H12.2768H12.2767H12.2765H12.2764H12.2762H12.2761H12.2759H12.2757H12.2756H12.2754H12.2753H12.2751H12.275H12.2748H12.2746H12.2745H12.2743H12.2742H12.274H12.2738H12.2737H12.2735H12.2734H12.2732H12.273H12.2729H12.2727H12.2725H12.2724H12.2722H12.272H12.2719H12.2717H12.2716H12.2714H12.2712H12.2711H12.2709H12.2707H12.2706H12.2704H12.2702H12.2701H12.2699H12.2697H12.2696H12.2694H12.2692H12.269H12.2689H12.2687H12.2685H12.2684H12.2682H12.268H12.2679H12.2677H12.2675H12.2673H12.2672H12.267H12.2668H12.2667H12.2665H12.2663H12.2661H12.266H12.2658H12.2656H12.2654H12.2653H12.2651H12.2649H12.2647H12.2646H12.2644H12.2642H12.264H12.2639H12.2637H12.2635H12.2633H12.2631H12.263H12.2628H12.2626H12.2624H12.2623H12.2621H12.2619H12.2617H12.2615H12.2614H12.2612H12.261H12.2608H12.2606H12.2605H12.2603H12.2601H12.2599H12.2597H12.2596H12.2594H12.2592H12.259H12.2588H12.2586H12.2585H12.2583H12.2581H12.2579H12.2577H12.2576H12.2574H12.2572H12.257H12.2568H12.2566H12.2564H12.2563H12.2561H12.2559H12.2557H12.2555H12.2553H12.2551H12.255H12.2548H12.2546H12.2544H12.2542H12.254H12.2538H12.2537H12.2535H12.2533H12.2531H12.2529H12.2527H12.2525H12.2523H12.2522H12.252H12.2518H12.2516H12.2514H12.2512H12.251H12.2508H12.2506H12.2505H12.2503H12.2501H12.2499H12.2497H12.2495H12.2493H12.2491H12.2489H12.2487H12.2486H12.2484H12.2482H12.248H12.2478H12.2476H12.2474H12.2472H12.247H12.2468H12.2466H12.2465H12.2463H12.2461H12.2459H12.2457H12.2455H12.2453H12.2451H12.2449H12.2447H12.2445H12.2443H12.2442H12.244H12.2438H12.2436H12.2434H12.2432H12.243H12.2428H12.2426H12.2424H12.2422H12.242H12.2418H12.2416H12.2414H12.2412H12.2411H12.2409H12.2407H12.2405H12.2403H12.2401H12.2399H12.2397H12.2395H12.2393H12.2391H12.2389H12.2387H12.2385H12.2383H12.2381H12.2379H12.2378H12.2376H12.2374H12.2372H12.237H12.2368H12.2366H12.2364H12.2362H12.236H12.2358H12.2356H12.2354H12.2352H12.235H12.2348H12.2346H12.2344H12.2342H12.234H12.2338H12.2337H12.2335H12.2333H12.2331H12.2329H12.2327H12.2325H12.2323H12.2321H12.2319H12.2317H12.2315H12.2313H12.2311H12.2309H12.2307H12.2305H12.2303H12.2301H12.2299H12.2297H12.2296H12.2294H12.2292H12.229H12.2288H12.2286H12.2284H12.2282H12.228H12.2278H12.2276H12.2274H12.2272H12.227H12.2268H12.2266H12.2264H12.2262H12.226H12.2258H12.2257H12.2255H12.2253H12.2251H12.2249H12.2247H12.2245H12.2243H12.2241H12.2239H12.2237H12.2235H12.2233H12.2231H12.2229H12.2227H12.2225H12.2224H12.2222H12.222H12.2218H12.2216H12.2214H12.2212H12.221H12.2208H12.2206H12.2204H12.2202H12.22H12.2198H12.2197H12.2195H12.2193H12.2191H12.2189H12.2187H12.2185H12.2183H12.2181H12.2179H12.2177H12.2175H12.2173H12.2172H12.217H12.2168H12.2166H12.2164H12.2162H12.216H12.2158H12.2156H12.2154H12.2153H12.2151H12.2149H12.2147H12.2145H12.2143H12.2141H12.2139H12.2137H12.2135H12.2134H12.2132H12.213H12.2128H12.2126H12.2124H12.2122H12.212H12.2118H12.2117H12.2115H12.2113H12.2111H12.2109H12.2107H12.2105H12.2104H12.2102H12.21H12.2098H12.2096H12.2094H12.2092H12.209H12.2089H12.2087H12.2085H12.2083H12.2081H12.2079H12.2078H12.2076H12.2074H12.2073C10.3668 14.3643 9 12.9328 9 11.1801Z" fill="#00E19D" stroke="#00E19D"/>
</svg>
