<svg fill="none" height="48" viewBox="0 0 48 48" width="48" xmlns="http://www.w3.org/2000/svg">
    <path
        d="m0 12c0-3.31371 2.68629-6 6-6h36c3.3137 0 6 2.68629 6 6v24c0 3.3137-2.6863 6-6 6h-36c-3.31371 0-6-2.6863-6-6z"
        fill="#a3a3a3" />
    <g fill="#fff">
        <path
            d="m28.6992 23.4867-10.1908 11.6466c-.9779 1.1176-.1843 2.8667 1.3008 2.8667h20.3816c1.4851 0 2.2787-1.7491 1.3008-2.8667l-10.1908-11.6466c-.6886-.7871-1.913-.7871-2.6016 0z" />
        <path
            d="m18.6503 19.6872-12.40369 15.5045c-.9054 1.1318-.09962 2.8083 1.34973 2.8083h24.80736c1.4493 0 2.2551-1.6765 1.3497-2.8083l-12.4037-15.5045c-.6919-.865-2.0075-.865-2.6994 0z" />
        <circle cx="38" cy="16" r="6" />
    </g>
</svg>